# xmcd
#
# Track frame offsets:
#  150
#  10394
#  29099
#  40605
#  55401
#  66602
#  82700
#  93863
#  102575
#  117212
#  129587
#  144343
#  157583
#  172915
#
# Disc length: 2472 seconds
#
# Revision: 0
# Processed by: cddbd v1.4PL0 Copyright (c) Steve Scherf et al.
# Submitted via: AltoMP3_Maker 3.0
#
DISCID=af09a60e
DTITLE=The Boys - Highway Headed South
DYEAR=1900
DGENRE=
TTITLE0=Highway Headed South
TTITLE1=Golden Ring
TTITLE2=Make Him A Soldier
TTITLE3=Water Lily
TTITLE4=Window Up Above
TTITLE5=Together In Our Hearts
TTITLE6=Green Mountain Hop
TTITLE7=I'll Love Nobody But You
TTITLE8=I'll Just Pretend
TTITLE9=There's An Open Door Waiting
TTITLE10=Hello Sunshine
TTITLE11=The Sweetest Gift
TTITLE12=The Great Speckled Bird
TTITLE13=Any Old Time
EXTD=
EXTT0=
EXTT1=
EXTT2=
EXTT3=
EXTT4=
EXTT5=
EXTT6=
EXTT7=
EXTT8=
EXTT9=
EXTT10=
EXTT11=
EXTT12=
EXTT13=
PLAYORDER=
